<svg width="255" height="255" viewBox="0 0 255 255" fill="none" xmlns="http://www.w3.org/2000/svg">
<rect width="255" height="255" rx="2" fill="url(#paint0_linear_25128_4046)"/>
<path d="M120.645 57.3522C109.232 58.6873 98.3459 63.3783 87.6002 71.6055C84.9843 73.581 82.0855 76.3994 81.7472 77.1912C81.6952 77.313 81.7995 77.3998 81.9319 77.4011C82.3874 77.4056 83.5554 77.3014 84.8611 77.1264C88.5132 76.6212 96.3092 76.9099 99.9262 77.6676C104.351 78.6419 109.373 80.4822 113.762 82.7555C117.941 84.9206 118.714 85.534 117.66 85.967C117.344 86.0753 109.021 87.23 99.1185 88.529C75.8361 91.5962 72.0786 92.1735 70.8144 92.823C69.9365 93.3282 69.48 94.1582 67.689 98.8852C65.582 104.406 62.0001 114.438 62.0001 114.762C62.0001 114.907 78.4699 112.85 93.0784 110.901C96.9413 110.36 103.438 109.386 107.476 108.664C118.819 106.715 121.102 107.076 132.901 112.597C136.307 114.185 139.573 115.664 140.135 115.953C140.547 116.137 140.553 116.72 140.145 116.912L139.959 117C139.292 117.324 127.984 119.525 114.851 121.907C62.5971 131.361 63.5804 131.145 62.4566 133.454C62.1406 134.103 62.0001 136.954 62.0001 144.027V152.518C62.0001 153.131 62.5566 153.593 63.159 153.481C63.756 153.409 66.8814 152.831 70.077 152.218C73.2726 151.64 81.806 150.089 89.04 148.79C107.722 145.398 115.729 143.81 125.737 141.501C133.463 139.697 134.973 139.444 138.379 139.444C142.417 139.444 145.718 140.021 150.073 141.537C153.584 142.764 162.083 146.553 162.083 146.841C162.083 147.31 160.327 147.779 128.195 156.223C73.2375 170.693 66.7409 172.425 65.0553 173.219C61.9299 174.698 62.0001 174.337 62.0001 186.029V194.608C62.0001 195.506 62.7982 196.193 63.6857 196.06C66.6707 195.627 132.444 178.668 144.524 175.24C156.253 171.92 156.288 171.92 160.327 171.92C163.944 171.92 164.716 172.028 167.596 173.074C170.124 173.941 180.343 178.848 181.011 179.497C181.081 179.57 181.081 179.75 180.976 179.858C180.87 179.967 168.509 183.9 153.549 188.591C138.59 193.282 126.264 197.287 126.193 197.504C126.123 197.756 137.466 197.9 159.66 197.973C191.405 198.045 193.266 198.009 193.512 197.431C193.618 197.071 193.828 183.539 193.934 167.373C194.144 138.506 193.863 124.541 192.95 115.773C191.791 104.731 188.42 94.8798 182.766 86.1835C179.43 81.0235 172.231 73.8066 166.683 69.9817C152.566 60.3472 135.429 55.6201 120.645 57.3522Z" fill="#C2D362"/>
<defs>
<linearGradient id="paint0_linear_25128_4046" x1="61" y1="128" x2="366.5" y2="480.5" gradientUnits="userSpaceOnUse">
<stop stop-color="#050518"/>
<stop offset="1" stop-color="#1A1A7E"/>
</linearGradient>
</defs>
</svg>
